<?xml version="1.0" encoding="UTF-8" standalone="no"?>
<svg width="277px" height="21px" viewBox="0 0 277 21" version="1.1" xmlns="http://www.w3.org/2000/svg" xmlns:xlink="http://www.w3.org/1999/xlink" xmlns:sketch="http://www.bohemiancoding.com/sketch/ns">
    <!-- Generator: Sketch 3.3 (11970) - http://www.bohemiancoding.com/sketch -->
    <title>Imported Layers Copy</title>
    <desc>Created with Sketch.</desc>
    <defs></defs>
    <g id="Page-1" stroke="none" stroke-width="1" fill="none" fill-rule="evenodd" sketch:type="MSPage">
        <g id="1152-Desktop-Copy" sketch:type="MSArtboardGroup" transform="translate(-14.000000, -19.000000)" fill="#3A3A3A">
            <g id="Imported-Layers-Copy" sketch:type="MSLayerGroup" transform="translate(14.000000, 19.000000)">
                <path d="M10.664,18.342 C6.253,18.342 3.056,14.759 3.056,10.376 L3.056,10.321 C3.056,5.938 6.198,2.408 10.61,2.408 C15.02,2.408 18.219,5.994 18.219,10.376 L18.219,10.43 C18.219,14.815 15.075,18.342 10.664,18.342 M10.61,20.354 C16.481,20.354 20.48,15.696 20.48,10.376 L20.48,10.321 C20.48,4.997 16.536,0.394 10.664,0.394 C4.792,0.394 0.796,5.053 0.796,10.376 L0.796,10.43 C0.796,15.751 4.736,20.354 10.61,20.354" id="Fill-1" sketch:type="MSShapeGroup"></path>
                <path d="M27.657,20.025 L29.78,20.025 L29.78,4.2 L42.241,20.025 L43.978,20.025 L43.978,0.726 L41.855,0.726 L41.855,16.193 L29.696,0.726 L27.657,0.726 L27.657,20.025" id="Fill-2" sketch:type="MSShapeGroup"></path>
                <path d="M52.216,20.025 L66.304,20.025 L66.304,18.037 L54.394,18.037 L54.394,11.178 L62.274,11.178 L62.274,9.193 L54.394,9.193 L54.394,2.711 L66.165,2.711 L66.165,0.726 L52.216,0.726 L52.216,20.025" id="Fill-3" sketch:type="MSShapeGroup"></path>
                <path d="M105.742,20.025 L107.921,20.025 L107.921,0.726 L105.742,0.726 L105.742,20.025 Z" id="Fill-4" sketch:type="MSShapeGroup"></path>
                <path d="M116.108,20.025 L118.232,20.025 L118.232,4.2 L130.695,20.025 L132.431,20.025 L132.431,0.726 L130.307,0.726 L130.307,16.193 L118.149,0.726 L116.108,0.726 L116.108,20.025" id="Fill-5" sketch:type="MSShapeGroup"></path>
                <path d="M194.364,20.025 L207.405,20.025 L207.405,18.011 L196.542,18.011 L196.542,0.726 L194.364,0.726 L194.364,20.025" id="Fill-6" sketch:type="MSShapeGroup"></path>
                <path d="M217.837,12.938 L222.246,3.123 L226.632,12.938 L217.837,12.938 L217.837,12.938 Z M212.461,20.025 L214.693,20.025 L216.984,14.923 L227.484,14.923 L229.746,20.025 L232.09,20.025 L223.296,0.589 L221.254,0.589 L212.461,20.025 L212.461,20.025 Z" id="Fill-7" sketch:type="MSShapeGroup"></path>
                <path d="M238.072,20.025 L240.196,20.025 L240.196,4.2 L252.656,20.025 L254.393,20.025 L254.393,0.726 L252.269,0.726 L252.269,16.193 L240.113,0.726 L238.072,0.726 L238.072,20.025" id="Fill-8" sketch:type="MSShapeGroup"></path>
                <path d="M83.077,20.025 L85.255,20.025 L85.255,14.84 L89.363,10.679 L96.778,20.025 L99.508,20.025 L90.879,9.161 L99.15,0.726 L96.338,0.726 L85.255,12.248 L85.255,0.726 L83.077,0.726 L83.077,20.025" id="Fill-9" sketch:type="MSShapeGroup"></path>
                <path d="M149.453,20.354 C152.581,20.354 155.411,19.004 157.203,17.403 L157.203,9.713 L149.233,9.713 L149.233,11.671 L155.108,11.671 L155.108,16.468 C153.783,17.543 151.746,18.397 149.539,18.397 C144.851,18.397 141.902,14.552 141.902,10.346 C141.902,6.142 145.033,2.408 149.304,2.408 C152.034,2.408 153.618,3.317 155.108,4.612 L156.514,2.958 C154.583,1.332 152.571,0.394 149.318,0.394 C143.528,0.394 139.64,4.871 139.64,10.403 C139.64,16.823 144.257,20.354 149.453,20.354" id="Fill-10" sketch:type="MSShapeGroup"></path>
                <path d="M171.47,20.301 C175.277,20.301 178.06,18.182 178.06,14.815 C178.06,11.949 176.075,10.265 171.773,9.328 C167.53,8.416 166.536,7.223 166.536,5.551 C166.536,3.875 168.136,2.408 170.645,2.408 C172.629,2.408 174.421,3.043 176.214,4.501 L177.481,2.823 C175.524,1.251 173.511,0.451 170.7,0.451 C167.034,0.451 164.359,2.628 164.359,5.742 C164.359,8.856 166.399,10.376 170.836,11.339 C174.89,12.195 175.855,13.308 175.855,15.035 C175.855,16.76 174.145,18.342 171.553,18.342 C168.88,18.342 166.951,17.433 164.938,15.613 L163.585,17.21 C165.902,19.279 168.477,20.301 171.47,20.301" id="Fill-11" sketch:type="MSShapeGroup"></path>
                <path d="M262.63,20.025 L276.718,20.025 L276.718,18.037 L264.807,18.037 L264.807,11.178 L272.687,11.178 L272.687,9.193 L264.807,9.193 L264.807,2.711 L276.58,2.711 L276.58,0.726 L262.63,0.726 L262.63,20.025" id="Fill-12" sketch:type="MSShapeGroup"></path>
            </g>
        </g>
    </g>
</svg>